<?xml version="1.0" encoding="UTF-8"?>
<svg width="512" height="512" viewBox="0 0 512 512" fill="none" xmlns="http://www.w3.org/2000/svg">
  <!-- Minimal Stylish Eye Icon for HTML Viewer -->
  
  <!-- Gradient Background -->
  <defs>
    <linearGradient id="eyeGradient" x1="0%" y1="0%" x2="100%" y2="100%">
      <stop offset="0%" stop-color="#2196F3"/>
      <stop offset="100%" stop-color="#1976D2"/>
    </linearGradient>
    <radialGradient id="irisGradient" cx="50%" cy="50%" r="50%" fx="50%" fy="50%">
      <stop offset="0%" stop-color="#FFD700"/>
      <stop offset="100%" stop-color="#FFA500"/>
    </radialGradient>
  </defs>
  
  <!-- Eye Background with Gradient -->
  <rect width="512" height="512" rx="80" fill="url(#eyeGradient)"/>
  
  <!-- Eye Shape - Minimal -->
  <path d="M384 256C384 336 312 400 224 400C136 400 64 336 64 256C64 176 136 112 224 112C312 112 384 176 384 256Z" fill="white"/>
  
  <!-- Iris with Gradient -->
  <circle cx="224" cy="256" r="64" fill="url(#irisGradient)"/>
  
  <!-- Pupil -->
  <circle cx="224" cy="256" r="32" fill="#2C3E50"/>
  
  <!-- Eye Reflection - Simple -->
  <circle cx="240" cy="240" r="8" fill="white"/>
  
  <!-- Minimal Eyelashes -->
  <path d="M352 144L368 128L384 144L368 160L352 144Z" fill="#2C3E50"/>
  <path d="M352 368L368 384L384 368L368 352L352 368Z" fill="#2C3E50"/>
  
  <!-- Eye Detail Line - Subtle -->
  <path d="M176 256C176 240 192 224 216 224" stroke="#E0E0E0" stroke-width="6" stroke-linecap="round"/>
  
  <!-- Shadow for Depth -->
  <ellipse cx="224" cy="352" rx="104" ry="24" fill="black" fill-opacity="0.1"/>
  
  <!-- Decorative HTML Element - Very Subtle -->
  <path d="M64 64L80 48L96 64L80 80L64 64Z" fill="#FF5722" fill-opacity="0.2"/>
  
</svg>